<?xml version="1.0" encoding="UTF-8"?>
<!DOCTYPE svg PUBLIC "-//W3C//DTD SVG 1.1//EN" "http://www.w3.org/Graphics/SVG/1.1/DTD/svg11.dtd">
<svg xmlns="http://www.w3.org/2000/svg" version="1.1" width="180px" height="180px" style="shape-rendering:geometricPrecision; text-rendering:geometricPrecision; image-rendering:optimizeQuality; fill-rule:evenodd; clip-rule:evenodd" xmlns:xlink="http://www.w3.org/1999/xlink">
<g><path style="opacity:0.533" fill="#f2a5a7" d="M 53.5,5.5 C 53.5,5.83333 53.5,6.16667 53.5,6.5C 52.5,6.5 51.5,6.5 50.5,6.5C 46.4659,6.50454 42.4659,6.83787 38.5,7.5C 43.1199,4.50374 48.1199,3.83708 53.5,5.5 Z"/></g>
<g><path style="opacity:0.154" fill="#e0f3c5" d="M 73.5,7.5 C 83.6584,6.34147 93.9917,6.1748 104.5,7C 105.931,7.46524 107.097,8.29857 108,9.5C 110.082,20.6772 109.915,31.6772 107.5,42.5C 107.667,31.8281 107.5,21.1615 107,10.5C 106.097,9.29857 104.931,8.46524 103.5,8C 93.5056,7.50019 83.5056,7.33352 73.5,7.5 Z"/></g>
<g><path style="opacity:0.135" fill="#e4f7ca" d="M 114.5,7.5 C 124.992,6.34121 135.659,6.17455 146.5,7C 148.063,7.75891 149.063,8.92558 149.5,10.5C 149.167,10.5 148.833,10.5 148.5,10.5C 147.71,9.59872 146.71,8.93205 145.5,8.5C 135.347,7.50577 125.014,7.17244 114.5,7.5 Z"/></g>
<g><path style="opacity:0.914" fill="#c84344" d="M 50.5,6.5 C 51.5,6.5 52.5,6.5 53.5,6.5C 59.153,7.99155 63.8196,10.9915 67.5,15.5C 67.5,16.1667 67.5,16.8333 67.5,17.5C 65.0365,15.5389 62.7032,13.3722 60.5,11C 57.1068,9.37997 53.7735,7.87997 50.5,6.5 Z"/></g>
<g><path style="opacity:0.208" fill="#fcc6c6" d="M 53.5,6.5 C 53.5,6.16667 53.5,5.83333 53.5,5.5C 59.962,6.39127 64.6286,9.7246 67.5,15.5C 63.8196,10.9915 59.153,7.99155 53.5,6.5 Z"/></g>
<g><path style="opacity:0.703" fill="#afd27e" d="M 114.5,7.5 C 125.014,7.17244 135.347,7.50577 145.5,8.5C 135.494,8.33352 125.494,8.50019 115.5,9C 114.244,9.41691 113.577,10.2502 113.5,11.5C 112.506,20.6517 112.173,29.985 112.5,39.5C 111.506,30.3483 111.173,21.015 111.5,11.5C 111.088,9.02741 112.088,7.69408 114.5,7.5 Z"/></g>
<g><path style="opacity:0.502" fill="#f3a6a8" d="M 38.5,7.5 C 38.1667,8.16667 37.8333,8.83333 37.5,9.5C 36.8333,9.5 36.1667,9.5 35.5,9.5C 35.9731,8.09368 36.9731,7.42702 38.5,7.5 Z"/></g>
<g><path style="opacity:1" fill="#e91c23" d="M 50.5,6.5 C 53.7735,7.87997 57.1068,9.37997 60.5,11C 62.7032,13.3722 65.0365,15.5389 67.5,17.5C 68.2919,23.1302 68.6252,28.7969 68.5,34.5C 66.3311,36.3403 64.9977,38.6737 64.5,41.5C 63.209,41.2627 62.209,41.596 61.5,42.5C 57.8914,43.758 54.2248,44.9247 50.5,46C 38.6586,46.3486 31.6586,40.5152 29.5,28.5C 30.0466,25.1738 30.5466,21.8404 31,18.5C 32.5814,15.084 34.7481,12.084 37.5,9.5C 37.8333,8.83333 38.1667,8.16667 38.5,7.5C 42.4659,6.83787 46.4659,6.50454 50.5,6.5 Z"/></g>
<g><path style="opacity:1" fill="#97c059" d="M 73.5,7.5 C 83.5056,7.33352 93.5056,7.50019 103.5,8C 104.931,8.46524 106.097,9.29857 107,10.5C 107.5,21.1615 107.667,31.8281 107.5,42.5C 107.5,43.8333 106.833,44.5 105.5,44.5C 94.9865,44.8276 84.6532,44.4942 74.5,43.5C 84.8723,43.7604 95.2056,43.4271 105.5,42.5C 106.954,31.7618 106.787,21.0951 105,10.5C 94.3333,9.16667 83.6667,9.16667 73,10.5C 72.1917,21.2432 72.3583,31.9099 73.5,42.5C 72.8333,42.5 72.1667,42.5 71.5,42.5C 70.5773,38.9359 70.244,35.2693 70.5,31.5C 70.5,28.5 70.5,25.5 70.5,22.5C 70.3345,18.4862 70.5012,14.4862 71,10.5C 72.045,9.62656 72.8783,8.62656 73.5,7.5 Z"/></g>
<g><path style="opacity:0.997" fill="#8fbf4f" d="M 145.5,8.5 C 146.71,8.93205 147.71,9.59872 148.5,10.5C 148.828,21.3464 148.494,32.0131 147.5,42.5C 147.666,32.1613 147.5,21.828 147,11.5C 146.5,11 146,10.5 145.5,10C 135.833,9.33333 126.167,9.33333 116.5,10C 115.473,10.5133 114.473,11.0133 113.5,11.5C 113.577,10.2502 114.244,9.41691 115.5,9C 125.494,8.50019 135.494,8.33352 145.5,8.5 Z"/></g>
<g><path style="opacity:0.443" fill="#f6afb2" d="M 35.5,9.5 C 34.1667,11.5 32.5,13.1667 30.5,14.5C 31.1667,11.8333 32.8333,10.1667 35.5,9.5 Z"/></g>
<g><path style="opacity:1" fill="#8bc53e" d="M 147.5,42.5 C 146.508,42.3284 145.842,42.6618 145.5,43.5C 135.478,43.8319 125.478,43.4985 115.5,42.5C 113.557,32.3566 112.891,22.0232 113.5,11.5C 114.473,11.0133 115.473,10.5133 116.5,10C 126.167,9.33333 135.833,9.33333 145.5,10C 146,10.5 146.5,11 147,11.5C 147.5,21.828 147.666,32.1613 147.5,42.5 Z"/></g>
<g><path style="opacity:1" fill="#8bc53e" d="M 74.5,43.5 C 73.8333,43.5 73.5,43.1667 73.5,42.5C 72.3583,31.9099 72.1917,21.2432 73,10.5C 83.6667,9.16667 94.3333,9.16667 105,10.5C 106.787,21.0951 106.954,31.7618 105.5,42.5C 95.2056,43.4271 84.8723,43.7604 74.5,43.5 Z"/></g>
<g><path style="opacity:0.286" fill="#e0e6b1" d="M 73.5,7.5 C 72.8783,8.62656 72.045,9.62656 71,10.5C 70.5012,14.4862 70.3345,18.4862 70.5,22.5C 69.6873,20.7392 68.6873,19.0725 67.5,17.5C 67.5,16.8333 67.5,16.1667 67.5,15.5C 69.13,13.9739 69.9633,11.9739 70,9.5C 70.8159,8.17723 71.9826,7.51056 73.5,7.5 Z"/></g>
<g><path style="opacity:0.267" fill="#fababa" d="M 30.5,14.5 C 29.8897,16.4341 28.8897,18.1007 27.5,19.5C 27.2729,17.0672 28.2729,15.4006 30.5,14.5 Z"/></g>
<g><path style="opacity:0.133" fill="#fcd0cf" d="M 27.5,19.5 C 26.8379,23.4659 26.5045,27.4659 26.5,31.5C 25.8418,30.2067 25.5085,28.7067 25.5,27C 25.4078,24.1789 26.0744,21.6789 27.5,19.5 Z"/></g>
<g><path style="opacity:0.983" fill="#c45530" d="M 67.5,17.5 C 68.6873,19.0725 69.6873,20.7392 70.5,22.5C 70.5,25.5 70.5,28.5 70.5,31.5C 69.8333,32.5 69.1667,33.5 68.5,34.5C 68.6252,28.7969 68.2919,23.1302 67.5,17.5 Z"/></g>
<g><path style="opacity:0.839" fill="#c33b3c" d="M 28.5,34.5 C 30.2451,36.0326 31.2451,38.0326 31.5,40.5C 30.8333,40.1667 30.1667,39.8333 29.5,39.5C 28.962,37.8828 28.6287,36.2161 28.5,34.5 Z"/></g>
<g><path style="opacity:0.059" fill="#fdcbca" d="M 26.5,32.5 C 27.1667,33.1667 27.8333,33.8333 28.5,34.5C 28.6287,36.2161 28.962,37.8828 29.5,39.5C 27.5516,37.6796 26.5516,35.3462 26.5,32.5 Z"/></g>
<g><path style="opacity:1" fill="#d52c2a" d="M 35.5,9.5 C 36.1667,9.5 36.8333,9.5 37.5,9.5C 34.7481,12.084 32.5814,15.084 31,18.5C 30.5466,21.8404 30.0466,25.1738 29.5,28.5C 31.6586,40.5152 38.6586,46.3486 50.5,46C 54.2248,44.9247 57.8914,43.758 61.5,42.5C 61.5,43.1667 61.5,43.8333 61.5,44.5C 59.262,46.1155 56.9287,47.4488 54.5,48.5C 53.8333,48.5 53.1667,48.5 52.5,48.5C 48.7657,48.6773 45.0991,48.3439 41.5,47.5C 38.193,45.2035 34.8597,42.8702 31.5,40.5C 31.2451,38.0326 30.2451,36.0326 28.5,34.5C 27.8333,33.8333 27.1667,33.1667 26.5,32.5C 26.5,32.1667 26.5,31.8333 26.5,31.5C 26.5045,27.4659 26.8379,23.4659 27.5,19.5C 28.8897,18.1007 29.8897,16.4341 30.5,14.5C 32.5,13.1667 34.1667,11.5 35.5,9.5 Z"/></g>
<g><path style="opacity:0.204" fill="#e1e1b0" d="M 70.5,31.5 C 70.244,35.2693 70.5773,38.9359 71.5,42.5C 72.1667,43.5 72.8333,44.5 73.5,45.5C 70.1629,44.516 68.6629,42.1827 69,38.5C 68.2917,39.3805 67.4584,40.0472 66.5,40.5C 67.6298,38.6854 68.2964,36.6854 68.5,34.5C 69.1667,33.5 69.8333,32.5 70.5,31.5 Z"/></g>
<g><path style="opacity:0.031" fill="#fac5c5" d="M 29.5,39.5 C 30.1667,39.8333 30.8333,40.1667 31.5,40.5C 33.1667,42.5 34.8333,44.5 36.5,46.5C 36.1667,46.5 35.8333,46.5 35.5,46.5C 32.7573,44.7607 30.7573,42.4274 29.5,39.5 Z"/></g>
<g><path style="opacity:0.89" fill="#ce4d49" d="M 31.5,40.5 C 34.8597,42.8702 38.193,45.2035 41.5,47.5C 40.8333,47.5 40.1667,47.5 39.5,47.5C 38.391,47.4431 37.391,47.1098 36.5,46.5C 34.8333,44.5 33.1667,42.5 31.5,40.5 Z"/></g>
<g><path style="opacity:0.855" fill="#d65c59" d="M 68.5,34.5 C 68.2964,36.6854 67.6298,38.6854 66.5,40.5C 65.5,42.1667 64.1667,43.5 62.5,44.5C 62.1667,44.5 61.8333,44.5 61.5,44.5C 61.5,43.8333 61.5,43.1667 61.5,42.5C 62.209,41.596 63.209,41.2627 64.5,41.5C 64.9977,38.6737 66.3311,36.3403 68.5,34.5 Z"/></g>
<g><path style="opacity:0.971" fill="#8fbf50" d="M 113.5,11.5 C 112.891,22.0232 113.557,32.3566 115.5,42.5C 125.478,43.4985 135.478,43.8319 145.5,43.5C 136.014,44.4938 126.348,44.8271 116.5,44.5C 113.703,44.0334 112.369,42.3667 112.5,39.5C 112.173,29.985 112.506,20.6517 113.5,11.5 Z"/></g>
<g><path style="opacity:0.573" fill="#bfdc93" d="M 71.5,42.5 C 72.1667,42.5 72.8333,42.5 73.5,42.5C 73.5,43.1667 73.8333,43.5 74.5,43.5C 84.6532,44.4942 94.9865,44.8276 105.5,44.5C 105.082,45.2216 104.416,45.7216 103.5,46C 93.3247,46.8249 83.3247,46.6583 73.5,45.5C 72.8333,44.5 72.1667,43.5 71.5,42.5 Z"/></g>
<g><path style="opacity:0.622" fill="#b8d78c" d="M 148.5,10.5 C 148.833,10.5 149.167,10.5 149.5,10.5C 150.659,20.6584 150.825,30.9917 150,41.5C 149.252,43.751 147.752,45.0844 145.5,45.5C 135.652,45.8271 125.986,45.4938 116.5,44.5C 126.348,44.8271 136.014,44.4938 145.5,43.5C 145.842,42.6618 146.508,42.3284 147.5,42.5C 148.494,32.0131 148.828,21.3464 148.5,10.5 Z"/></g>
<g><path style="opacity:0.154" fill="#e2f4c6" d="M 111.5,11.5 C 111.173,21.015 111.506,30.3483 112.5,39.5C 112.369,42.3667 113.703,44.0334 116.5,44.5C 125.986,45.4938 135.652,45.8271 145.5,45.5C 134.961,46.8201 124.295,46.8201 113.5,45.5C 112.416,44.3349 111.583,43.0016 111,41.5C 110.175,31.3247 110.342,21.3247 111.5,11.5 Z"/></g>
<g><path style="opacity:0.027" fill="#fcd9c6" d="M 61.5,44.5 C 61.8333,44.5 62.1667,44.5 62.5,44.5C 60.8624,45.7046 60.5291,47.0379 61.5,48.5C 59.1667,48.5 56.8333,48.5 54.5,48.5C 56.9287,47.4488 59.262,46.1155 61.5,44.5 Z"/></g>
<g><path style="opacity:0.271" fill="#deeabb" d="M 35.5,46.5 C 35.8333,46.5 36.1667,46.5 36.5,46.5C 37.391,47.1098 38.391,47.4431 39.5,47.5C 40.1667,48.1667 40.8333,48.8333 41.5,49.5C 38.1501,49.335 34.8168,49.5017 31.5,50C 30.944,50.3826 30.6107,50.8826 30.5,51.5C 29.8333,51.5 29.5,51.8333 29.5,52.5C 29.1667,52.5 28.8333,52.5 28.5,52.5C 28.5106,50.9826 29.1772,49.8159 30.5,49C 32.3146,48.2432 33.9812,47.4098 35.5,46.5 Z"/></g>
<g><path style="opacity:1" fill="#ce804e" d="M 39.5,47.5 C 40.1667,47.5 40.8333,47.5 41.5,47.5C 45.0991,48.3439 48.7657,48.6773 52.5,48.5C 52.5,48.8333 52.5,49.1667 52.5,49.5C 48.8333,49.5 45.1667,49.5 41.5,49.5C 40.8333,48.8333 40.1667,48.1667 39.5,47.5 Z"/></g>
<g><path style="opacity:0.318" fill="#d8dea8" d="M 52.5,49.5 C 52.5,49.1667 52.5,48.8333 52.5,48.5C 53.1667,48.5 53.8333,48.5 54.5,48.5C 56.8333,48.5 59.1667,48.5 61.5,48.5C 64.3667,48.3692 66.0334,49.7026 66.5,52.5C 66.1667,52.5 65.8333,52.5 65.5,52.5C 65.0472,51.5416 64.3805,50.7083 63.5,50C 59.8484,49.5014 56.1817,49.3347 52.5,49.5 Z"/></g>
<g><path style="opacity:0.808" fill="#95be5d" d="M 106.5,50.5 C 107.799,61.628 107.799,72.628 106.5,83.5C 106.951,73.0623 106.451,62.729 105,52.5C 104.25,51.8742 103.416,51.3742 102.5,51C 93.1667,50.3333 83.8333,50.3333 74.5,51C 73.6667,51.8333 72.8333,52.6667 72,53.5C 71.5002,63.4944 71.3335,73.4944 71.5,83.5C 70.3415,73.3416 70.1748,63.0083 71,52.5C 71.8333,51.6667 72.6667,50.8333 73.5,50C 84.5463,49.2117 95.5463,49.3784 106.5,50.5 Z"/></g>
<g><path style="opacity:1" fill="#97be51" d="M 41.5,49.5 C 45.1667,49.5 48.8333,49.5 52.5,49.5C 56.1817,49.3347 59.8484,49.5014 63.5,50C 64.3805,50.7083 65.0472,51.5416 65.5,52.5C 65.6665,63.1719 65.4998,73.8385 65,84.5C 64.6174,85.056 64.1174,85.3893 63.5,85.5C 64.6201,74.8798 64.7868,64.2131 64,53.5C 63.2496,52.8742 62.4162,52.3742 61.5,52C 51.172,51.5002 40.8387,51.3335 30.5,51.5C 30.6107,50.8826 30.944,50.3826 31.5,50C 34.8168,49.5017 38.1501,49.335 41.5,49.5 Z"/></g>
<g><path style="opacity:1" fill="#8bc53e" d="M 30.5,51.5 C 40.8387,51.3335 51.172,51.5002 61.5,52C 62.4162,52.3742 63.2496,52.8742 64,53.5C 64.7868,64.2131 64.6201,74.8798 63.5,85.5C 52.4489,85.7886 41.4489,85.4553 30.5,84.5C 29.5462,73.8848 29.2129,63.2181 29.5,52.5C 29.5,51.8333 29.8333,51.5 30.5,51.5 Z"/></g>
<g><path style="opacity:1" fill="#8bc53f" d="M 106.5,83.5 C 106.167,84.1667 105.833,84.8333 105.5,85.5C 94.1356,85.7434 82.8023,85.41 71.5,84.5C 71.5,84.1667 71.5,83.8333 71.5,83.5C 71.3335,73.4944 71.5002,63.4944 72,53.5C 72.8333,52.6667 73.6667,51.8333 74.5,51C 83.8333,50.3333 93.1667,50.3333 102.5,51C 103.416,51.3742 104.25,51.8742 105,52.5C 106.451,62.729 106.951,73.0623 106.5,83.5 Z"/></g>
<g><path style="opacity:0.805" fill="#b2d187" d="M 28.5,52.5 C 28.8333,52.5 29.1667,52.5 29.5,52.5C 29.2129,63.2181 29.5462,73.8848 30.5,84.5C 29.8333,84.1667 29.1667,83.8333 28.5,83.5C 27.1667,73.1667 27.1667,62.8333 28.5,52.5 Z"/></g>
<g><path style="opacity:0.151" fill="#cce5ac" d="M 106.5,50.5 C 107.117,50.6107 107.617,50.944 108,51.5C 108.667,62.5 108.667,73.5 108,84.5C 107.292,85.3805 106.458,86.0472 105.5,86.5C 105.5,86.1667 105.5,85.8333 105.5,85.5C 105.833,84.8333 106.167,84.1667 106.5,83.5C 107.799,72.628 107.799,61.628 106.5,50.5 Z"/></g>
<g><path style="opacity:0.274" fill="#d4ebb1" d="M 106.5,50.5 C 95.5463,49.3784 84.5463,49.2117 73.5,50C 72.6667,50.8333 71.8333,51.6667 71,52.5C 70.1748,63.0083 70.3415,73.3416 71.5,83.5C 71.5,83.8333 71.5,84.1667 71.5,84.5C 71.5,84.8333 71.5,85.1667 71.5,85.5C 70.8826,85.3893 70.3826,85.056 70,84.5C 69.3333,73.5 69.3333,62.5 70,51.5C 71.3189,49.5125 73.1523,48.3459 75.5,48C 85.5403,47.2047 95.5403,47.538 105.5,49C 106.056,49.3826 106.389,49.8826 106.5,50.5 Z"/></g>
<g><path style="opacity:0.559" fill="#c8dfa4" d="M 65.5,52.5 C 65.8333,52.5 66.1667,52.5 66.5,52.5C 67.6585,62.6584 67.8252,72.9917 67,83.5C 66.5776,85.4257 65.4109,86.4257 63.5,86.5C 63.5,86.1667 63.5,85.8333 63.5,85.5C 64.1174,85.3893 64.6174,85.056 65,84.5C 65.4998,73.8385 65.6665,63.1719 65.5,52.5 Z"/></g>
<g><path style="opacity:0.803" fill="#92bb59" d="M 30.5,84.5 C 41.4489,85.4553 52.4489,85.7886 63.5,85.5C 63.5,85.8333 63.5,86.1667 63.5,86.5C 52.8281,86.6665 42.1615,86.4998 31.5,86C 30.944,85.6174 30.6107,85.1174 30.5,84.5 Z"/></g>
<g><path style="opacity:0.837" fill="#93bb59" d="M 71.5,85.5 C 71.5,85.1667 71.5,84.8333 71.5,84.5C 82.8023,85.41 94.1356,85.7434 105.5,85.5C 105.5,85.8333 105.5,86.1667 105.5,86.5C 94.1159,86.79 82.7825,86.4567 71.5,85.5 Z"/></g>
<g><path style="opacity:0.197" fill="#d5f1ae" d="M 28.5,83.5 C 29.1667,83.8333 29.8333,84.1667 30.5,84.5C 30.6107,85.1174 30.944,85.6174 31.5,86C 42.1615,86.4998 52.8281,86.6665 63.5,86.5C 52.6745,87.659 41.6745,87.8257 30.5,87C 29.1772,86.1841 28.5106,85.0174 28.5,83.5 Z"/></g>
<g><path style="opacity:0.234" fill="#d9f2b4" d="M 71.5,85.5 C 82.7825,86.4567 94.1159,86.79 105.5,86.5C 94.6878,88.9695 83.6878,89.1361 72.5,87C 71.944,86.6174 71.6107,86.1174 71.5,85.5 Z"/></g>
<g><path style="opacity:0.087" fill="#edfcd2" d="M 74.5,90.5 C 84.3247,89.3417 94.3247,89.1751 104.5,90C 106.426,90.4224 107.426,91.5891 107.5,93.5C 106.317,92.4955 104.984,91.6622 103.5,91C 93.8391,90.5002 84.1724,90.3335 74.5,90.5 Z"/></g>
<g><path style="opacity:0.866" fill="#90bf51" d="M 146.5,93.5 C 136.243,92.3592 125.91,92.1925 115.5,93C 115,93.5 114.5,94 114,94.5C 113.5,104.494 113.334,114.494 113.5,124.5C 112.341,114.342 112.175,104.008 113,93.5C 113.5,93 114,92.5 114.5,92C 119.833,91.8333 125.167,91.6667 130.5,91.5C 136.211,91.5051 141.544,92.1718 146.5,93.5 Z"/></g>
<g><path style="opacity:1" fill="#8bc53e" d="M 102.5,92.5 C 104.017,92.5106 105.184,93.1772 106,94.5C 106.765,105.534 106.599,116.534 105.5,127.5C 94.3206,127.828 83.3206,127.495 72.5,126.5C 72.3335,115.495 72.5002,104.495 73,93.5C 82.7504,92.5144 92.5837,92.181 102.5,92.5 Z"/></g>
<g><path style="opacity:1" fill="#8bc53e" d="M 146.5,93.5 C 146.833,93.5 147.167,93.5 147.5,93.5C 148.452,103.782 148.786,114.115 148.5,124.5C 147.5,125.167 146.5,125.833 145.5,126.5C 134.782,126.787 124.115,126.454 113.5,125.5C 113.5,125.167 113.5,124.833 113.5,124.5C 113.334,114.494 113.5,104.494 114,94.5C 114.5,94 115,93.5 115.5,93C 125.91,92.1925 136.243,92.3592 146.5,93.5 Z"/></g>
<g><path style="opacity:0.24" fill="#d6ecba" d="M 107.5,93.5 C 108.734,95.2014 109.401,97.2014 109.5,99.5C 108.349,105.322 108.349,111.155 109.5,117C 109.64,120.15 108.973,122.983 107.5,125.5C 107.5,114.833 107.5,104.167 107.5,93.5 Z"/></g>
<g><path style="opacity:0.622" fill="#b1d086" d="M 147.5,93.5 C 148.167,93.8333 148.833,94.1667 149.5,94.5C 150.833,104.5 150.833,114.5 149.5,124.5C 149.167,124.5 148.833,124.5 148.5,124.5C 148.786,114.115 148.452,103.782 147.5,93.5 Z"/></g>
<g><path style="opacity:1" fill="#8bc53e" d="M 63.5,93.5 C 64.8282,98.4558 65.4949,103.789 65.5,109.5C 65.4525,115.41 64.7858,121.076 63.5,126.5C 52.8126,126.832 42.1459,126.499 31.5,125.5C 30.3585,115.547 30.1918,105.547 31,95.5C 31.5,95 32,94.5 32.5,94C 42.828,93.5002 53.1613,93.3335 63.5,93.5 Z"/></g>
<g><path style="opacity:0.868" fill="#93bd57" d="M 72.5,91.5 C 82.6806,91.1726 92.6806,91.506 102.5,92.5C 92.5837,92.181 82.7504,92.5144 73,93.5C 72.5002,104.495 72.3335,115.495 72.5,126.5C 71.8333,126.167 71.1667,125.833 70.5,125.5C 70.3335,115.494 70.5002,105.494 71,95.5C 71.4101,94.0993 71.9101,92.766 72.5,91.5 Z"/></g>
<g><path style="opacity:0.165" fill="#e7fcc6" d="M 30.5,91.5 C 29.8902,92.391 29.5569,93.391 29.5,94.5C 29.5,94.8333 29.5,95.1667 29.5,95.5C 28.506,105.319 28.1726,115.319 28.5,125.5C 27.3412,115.008 27.1745,104.341 28,93.5C 28.4169,92.244 29.2502,91.5774 30.5,91.5 Z"/></g>
<g><path style="opacity:0.288" fill="#d4ebaf" d="M 72.5,91.5 C 71.9101,92.766 71.4101,94.0993 71,95.5C 70.5002,105.494 70.3335,115.494 70.5,125.5C 69.0648,122.45 68.3981,119.117 68.5,115.5C 69.083,108.173 69.583,100.839 70,93.5C 70.4169,92.244 71.2502,91.5774 72.5,91.5 Z"/></g>
<g><path style="opacity:0.836" fill="#98be66" d="M 72.5,91.5 C 72.8417,90.6618 73.5084,90.3284 74.5,90.5C 84.1724,90.3335 93.8391,90.5002 103.5,91C 104.984,91.6622 106.317,92.4955 107.5,93.5C 107.5,104.167 107.5,114.833 107.5,125.5C 107.5,126.833 106.833,127.5 105.5,127.5C 106.599,116.534 106.765,105.534 106,94.5C 105.184,93.1772 104.017,92.5106 102.5,92.5C 92.6806,91.506 82.6806,91.1726 72.5,91.5 Z"/></g>
<g><path style="opacity:0.964" fill="#8fc04e" d="M 63.5,93.5 C 53.1613,93.3335 42.828,93.5002 32.5,94C 32,94.5 31.5,95 31,95.5C 30.1918,105.547 30.3585,115.547 31.5,125.5C 42.1459,126.499 52.8126,126.832 63.5,126.5C 52.6745,127.659 41.6745,127.826 30.5,127C 29.5134,116.582 29.1801,106.082 29.5,95.5C 29.5,95.1667 29.5,94.8333 29.5,94.5C 30.6266,93.8783 31.6266,93.045 32.5,92C 37.6667,91.8333 42.8333,91.6667 48,91.5C 53.5457,91.5054 58.7124,92.1721 63.5,93.5 Z"/></g>
<g><path style="opacity:0.519" fill="#c0da99" d="M 28.5,125.5 C 28.1726,115.319 28.506,105.319 29.5,95.5C 29.1801,106.082 29.5134,116.582 30.5,127C 41.6745,127.826 52.6745,127.659 63.5,126.5C 64.7858,121.076 65.4525,115.41 65.5,109.5C 65.4949,103.789 64.8282,98.4558 63.5,93.5C 58.7124,92.1721 53.5457,91.5054 48,91.5C 42.8333,91.6667 37.6667,91.8333 32.5,92C 31.6266,93.045 30.6266,93.8783 29.5,94.5C 29.5569,93.391 29.8902,92.391 30.5,91.5C 30.9175,90.7784 31.5842,90.2784 32.5,90C 37.5,89.8333 42.5,89.6667 47.5,89.5C 53.2727,89.3785 58.9394,89.8785 64.5,91C 65.8932,92.1711 66.7265,93.6711 67,95.5C 67.6667,105.167 67.6667,114.833 67,124.5C 66.1667,126.667 64.6667,128.167 62.5,129C 52.1667,129.667 41.8333,129.667 31.5,129C 29.5743,128.578 28.5743,127.411 28.5,125.5 Z"/></g>
<g><path style="opacity:0.408" fill="#bfdc99" d="M 70.5,125.5 C 71.1667,125.833 71.8333,126.167 72.5,126.5C 83.3206,127.495 94.3206,127.828 105.5,127.5C 105.082,128.222 104.416,128.722 103.5,129C 92.76,129.928 82.0934,129.595 71.5,128C 70.7476,127.329 70.4142,126.496 70.5,125.5 Z"/></g>
<g><path style="opacity:0.3" fill="#bfda99" d="M 149.5,94.5 C 148.833,94.1667 148.167,93.8333 147.5,93.5C 147.167,93.5 146.833,93.5 146.5,93.5C 141.544,92.1718 136.211,91.5051 130.5,91.5C 125.167,91.6667 119.833,91.8333 114.5,92C 114,92.5 113.5,93 113,93.5C 112.175,104.008 112.341,114.342 113.5,124.5C 113.5,124.833 113.5,125.167 113.5,125.5C 113.611,126.117 113.944,126.617 114.5,127C 125.008,127.825 135.342,127.659 145.5,126.5C 146.5,125.833 147.5,125.167 148.5,124.5C 148.833,124.5 149.167,124.5 149.5,124.5C 149.489,126.017 148.823,127.184 147.5,128C 136.167,128.667 124.833,128.667 113.5,128C 112.299,127.097 111.465,125.931 111,124.5C 110.333,114.5 110.333,104.5 111,94.5C 111.465,93.0692 112.299,91.9025 113.5,91C 124.82,89.0237 136.153,89.0237 147.5,91C 148.823,91.8159 149.489,92.9826 149.5,94.5 Z"/></g>
<g><path style="opacity:0.851" fill="#90bf53" d="M 113.5,125.5 C 124.115,126.454 134.782,126.787 145.5,126.5C 135.342,127.659 125.008,127.825 114.5,127C 113.944,126.617 113.611,126.117 113.5,125.5 Z"/></g>
<g><path style="opacity:0.856" fill="#99bf67" d="M 59.5,133.5 C 50.3178,133.173 41.3178,133.507 32.5,134.5C 31.5,134.833 30.8333,135.5 30.5,136.5C 29.506,146.319 29.1726,156.319 29.5,166.5C 28.3415,156.342 28.1748,146.008 29,135.5C 29.8333,134.667 30.6667,133.833 31.5,133C 41.0092,132.176 50.3425,132.342 59.5,133.5 Z"/></g>
<g><path style="opacity:1" fill="#8bc53e" d="M 32.5,134.5 C 42.8857,134.191 53.219,134.524 63.5,135.5C 64.8333,145.833 64.8333,156.167 63.5,166.5C 58.3433,167.783 53.01,168.45 47.5,168.5C 42.5,168.333 37.5,168.167 32.5,168C 32,167.5 31.5,167 31,166.5C 30.5002,156.506 30.3335,146.506 30.5,136.5C 30.8333,135.5 31.5,134.833 32.5,134.5 Z"/></g>
<g><path style="opacity:0.174" fill="#dbf2bc" d="M 65.5,134.5 C 63.6208,133.659 61.6208,133.325 59.5,133.5C 50.3425,132.342 41.0092,132.176 31.5,133C 30.6667,133.833 29.8333,134.667 29,135.5C 28.1748,146.008 28.3415,156.342 29.5,166.5C 29.9528,167.458 30.6195,168.292 31.5,169C 42.1615,169.5 52.8281,169.667 63.5,169.5C 52.6402,171.708 41.6402,171.875 30.5,170C 29.6667,169.167 28.8333,168.333 28,167.5C 27.3333,156.5 27.3333,145.5 28,134.5C 28.8333,133.667 29.6667,132.833 30.5,132C 41.5,131.333 52.5,131.333 63.5,132C 64.756,132.417 65.4226,133.25 65.5,134.5 Z"/></g>
<g><path style="opacity:0.063" fill="#effdd4" d="M 65.5,134.5 C 66.1174,134.611 66.6174,134.944 67,135.5C 67.8249,145.675 67.6583,155.675 66.5,165.5C 66.7855,155.115 66.4522,144.782 65.5,134.5 Z"/></g>
<g><path style="opacity:0.159" fill="#d4ebb3" d="M 105.5,169.5 C 105.5,168.833 105.5,168.167 105.5,167.5C 106.167,167.5 106.5,167.167 106.5,166.5C 107.659,156.342 107.825,146.008 107,135.5C 106.167,134.667 105.333,133.833 104.5,133C 94.1667,132.333 83.8333,132.333 73.5,133C 72.6667,133.833 71.8333,134.667 71,135.5C 70.1748,146.008 70.3415,156.342 71.5,166.5C 71.5,167.167 71.5,167.833 71.5,168.5C 70.8826,168.389 70.3826,168.056 70,167.5C 68.1132,156.468 68.1132,145.468 70,134.5C 70.8333,133.667 71.6667,132.833 72.5,132C 77.9183,130.92 83.2517,130.42 88.5,130.5C 94.1152,131.289 99.7818,131.789 105.5,132C 106.333,132.833 107.167,133.667 108,134.5C 108.667,145.5 108.667,156.5 108,167.5C 107.292,168.381 106.458,169.047 105.5,169.5 Z"/></g>
<g><path style="opacity:0.901" fill="#95bc5d" d="M 106.5,166.5 C 106.666,156.494 106.5,146.494 106,136.5C 104.829,135.107 103.329,134.273 101.5,134C 92.5,133.333 83.5,133.333 74.5,134C 73.6667,134.833 72.8333,135.667 72,136.5C 71.5002,146.494 71.3335,156.494 71.5,166.5C 70.3415,156.342 70.1748,146.008 71,135.5C 71.8333,134.667 72.6667,133.833 73.5,133C 83.8333,132.333 94.1667,132.333 104.5,133C 105.333,133.833 106.167,134.667 107,135.5C 107.825,146.008 107.659,156.342 106.5,166.5 Z"/></g>
<g><path style="opacity:1" fill="#8bc53f" d="M 106.5,166.5 C 106.5,167.167 106.167,167.5 105.5,167.5C 94.8848,168.454 84.2181,168.787 73.5,168.5C 72.8333,168.5 72.1667,168.5 71.5,168.5C 71.5,167.833 71.5,167.167 71.5,166.5C 71.3335,156.494 71.5002,146.494 72,136.5C 72.8333,135.667 73.6667,134.833 74.5,134C 83.5,133.333 92.5,133.333 101.5,134C 103.329,134.273 104.829,135.107 106,136.5C 106.5,146.494 106.666,156.494 106.5,166.5 Z"/></g>
<g><path style="opacity:0.884" fill="#96c15c" d="M 32.5,134.5 C 41.3178,133.507 50.3178,133.173 59.5,133.5C 61.6208,133.325 63.6208,133.659 65.5,134.5C 66.4522,144.782 66.7855,155.115 66.5,165.5C 66.4456,167.632 65.4456,168.965 63.5,169.5C 52.8281,169.667 42.1615,169.5 31.5,169C 30.6195,168.292 29.9528,167.458 29.5,166.5C 29.1726,156.319 29.506,146.319 30.5,136.5C 30.3335,146.506 30.5002,156.506 31,166.5C 31.5,167 32,167.5 32.5,168C 37.5,168.167 42.5,168.333 47.5,168.5C 53.01,168.45 58.3433,167.783 63.5,166.5C 64.8333,156.167 64.8333,145.833 63.5,135.5C 53.219,134.524 42.8857,134.191 32.5,134.5 Z"/></g>
<g><path style="opacity:0.839" fill="#91bd57" d="M 105.5,167.5 C 105.5,168.167 105.5,168.833 105.5,169.5C 94.6536,169.828 83.9869,169.494 73.5,168.5C 84.2181,168.787 94.8848,168.454 105.5,167.5 Z"/></g>
<g><path style="opacity:0.212" fill="#c6e2a3" d="M 71.5,168.5 C 72.1667,168.5 72.8333,168.5 73.5,168.5C 83.9869,169.494 94.6536,169.828 105.5,169.5C 94.6745,170.659 83.6745,170.826 72.5,170C 71.944,169.617 71.6107,169.117 71.5,168.5 Z"/></g>
</svg>
